<?xml version="1.0" standalone="no"?>
<!DOCTYPE svg PUBLIC "-//W3C//DTD SVG 20010904//EN"
 "http://www.w3.org/TR/2001/REC-SVG-20010904/DTD/svg10.dtd">
<svg version="1.0" xmlns="http://www.w3.org/2000/svg"
 width="544.000000pt" height="544.000000pt" viewBox="0 0 544.000000 544.000000"
 preserveAspectRatio="xMidYMid meet">
<metadata>
Created by potrace 1.14, written by Peter Selinger 2001-2017
</metadata>
<g transform="translate(0.000000,544.000000) scale(0.100000,-0.100000)"
fill="#000000" stroke="none">
<path d="M2198 4915 c-2 -2 -15 -6 -28 -8 -61 -12 -89 -22 -152 -55 -123 -63
-231 -193 -274 -329 -19 -60 -26 -213 -13 -273 13 -59 60 -180 70 -180 4 0 10
-9 14 -19 3 -11 35 -49 70 -84 115 -116 260 -171 427 -162 95 4 153 21 239 66
71 38 176 140 210 204 l24 45 455 0 455 0 23 -44 c28 -53 117 -146 175 -183
23 -15 44 -28 47 -28 3 0 16 -7 30 -15 84 -47 285 -60 393 -26 173 55 318 200
373 373 21 66 26 229 9 293 -16 62 -65 165 -96 205 -69 86 -206 185 -275 198
-11 2 -28 8 -38 12 -22 10 -210 12 -246 3 -14 -3 -38 -9 -55 -13 -67 -17 -167
-79 -235 -148 -39 -39 -70 -74 -70 -80 0 -5 -9 -22 -20 -37 l-21 -29 -452 0
-452 -1 -29 52 c-16 28 -56 77 -88 109 -56 54 -172 125 -214 132 -11 1 -25 6
-32 11 -13 8 -217 18 -224 11z"/>
<path d="M1230 3794 c-47 -9 -135 -38 -160 -52 -150 -89 -241 -197 -286 -339
-19 -61 -26 -213 -13 -278 18 -85 82 -205 143 -268 46 -47 127 -109 146 -112
3 0 16 -7 30 -15 57 -31 153 -49 250 -45 110 5 167 20 258 72 72 40 172 136
192 183 7 17 16 30 21 30 5 0 9 6 9 14 0 13 86 18 290 17 8 0 80 0 160 0 80 0
150 0 155 0 6 0 62 0 125 -1 63 -1 120 -1 125 0 38 8 56 -3 88 -53 114 -178
316 -279 522 -263 139 12 250 64 351 164 69 70 136 188 151 267 12 66 9 217
-6 270 -47 166 -177 314 -326 371 -27 10 -52 19 -55 20 -3 0 -14 4 -24 9 -22
10 -209 12 -246 3 -14 -3 -38 -9 -55 -13 -57 -14 -163 -76 -217 -128 -54 -51
-118 -136 -118 -156 0 -6 -155 -10 -455 -10 l-456 0 -36 56 c-70 111 -187 200
-310 239 -49 15 -207 26 -253 18z"/>
<path d="M2152 2665 c-96 -23 -194 -79 -271 -157 -39 -39 -71 -75 -71 -80 0
-5 -11 -26 -24 -47 -14 -21 -30 -58 -37 -82 -7 -24 -14 -51 -17 -59 -10 -35
-5 -228 7 -265 23 -71 55 -145 62 -145 4 0 10 -9 14 -19 11 -35 131 -146 193
-179 85 -45 144 -62 239 -67 108 -6 181 8 280 56 92 44 193 136 234 214 l24
46 105 0 c58 0 121 -1 140 -2 19 -1 42 -1 50 0 8 0 56 0 105 0 50 -1 97 0 105
0 18 1 193 0 275 0 33 -1 65 0 70 1 38 8 56 -3 89 -53 39 -63 114 -139 171
-176 22 -14 42 -26 45 -26 3 0 15 -6 28 -13 73 -41 232 -60 339 -41 206 37
399 226 441 433 13 65 7 219 -12 277 -57 182 -208 329 -391 380 -74 21 -236
18 -310 -6 -61 -19 -78 -27 -150 -74 -66 -43 -185 -178 -185 -210 0 -6 -156
-10 -460 -10 -260 -1 -460 3 -460 8 0 18 -74 117 -119 159 -39 37 -125 96
-141 97 -3 1 -15 6 -26 13 -63 35 -248 50 -342 27z"/>
<path d="M1155 1633 c-192 -38 -338 -146 -415 -307 -21 -45 -43 -103 -48 -130
-11 -55 -8 -238 4 -258 5 -7 10 -21 11 -32 2 -10 19 -49 39 -86 70 -134 201
-239 349 -281 110 -31 310 -11 395 39 101 60 198 149 223 205 6 15 15 27 19
27 5 0 8 7 8 14 0 13 65 15 458 15 l457 1 23 -44 c59 -111 200 -218 337 -257
110 -31 310 -11 395 39 150 89 243 199 285 339 58 189 3 414 -135 551 -54 54
-160 131 -160 116 0 -4 -6 -2 -12 4 -30 23 -119 44 -205 48 -109 4 -197 -16
-293 -67 -73 -39 -176 -138 -211 -204 l-24 -45 -130 -1 c-71 0 -146 1 -165 2
-19 0 -42 1 -50 0 -8 0 -60 0 -115 0 -92 0 -158 -1 -174 -3 -3 0 -10 0 -16 1
-5 1 -66 2 -135 1 l-126 -1 -16 33 c-9 18 -27 46 -40 63 -31 40 -119 125 -129
125 -4 0 -14 6 -22 14 -16 16 -69 40 -137 62 -43 15 -203 26 -245 17z"/>
</g>
</svg>
